<?xml version="1.0" standalone="no"?>
<!DOCTYPE svg PUBLIC "-//W3C//DTD SVG 20010904//EN"
 "http://www.w3.org/TR/2001/REC-SVG-20010904/DTD/svg10.dtd">
<svg version="1.0" xmlns="http://www.w3.org/2000/svg"
 width="1755.000000pt" height="1241.000000pt" viewBox="0 0 1755.000000 1241.000000"
 preserveAspectRatio="xMidYMid meet">
<metadata>
Created by potrace 1.16, written by Peter Selinger 2001-2019
</metadata>
<g transform="translate(0.000000,1241.000000) scale(0.100000,-0.100000)"
fill="#000000" stroke="none">
<path d="M9450 7433 c0 -1287 1 -1331 20 -1410 69 -291 278 -513 570 -609 84
-28 89 -28 383 -32 l297 -4 0 216 0 216 -243 0 c-262 0 -308 7 -392 56 -47 27
-123 104 -153 154 -54 93 -52 36 -52 1442 l0 1298 -215 0 -215 0 0 -1327z"/>
<path d="M5387 7950 c-364 -45 -664 -319 -753 -686 -22 -91 -23 -294 -1 -390
76 -343 348 -609 696 -679 113 -23 315 -16 416 14 292 87 513 300 603 581 62
192 56 419 -15 600 -149 379 -541 611 -946 560z m262 -452 c195 -66 324 -259
308 -462 -21 -278 -288 -477 -556 -415 -124 28 -252 131 -309 249 -174 359
179 757 557 628z"/>
<path d="M11415 7949 c-293 -39 -551 -226 -680 -492 -226 -471 -9 -1029 475
-1220 81 -32 202 -57 275 -57 l55 0 0 214 0 213 -62 7 c-76 8 -184 57 -247
112 -40 35 -121 145 -121 166 0 4 292 8 649 8 l649 0 6 31 c11 58 6 247 -9
318 -70 335 -328 602 -655 680 -100 24 -242 33 -335 20z m250 -446 c104 -31
194 -100 257 -197 21 -33 38 -63 38 -68 0 -4 -191 -8 -425 -8 -234 0 -425 3
-425 8 0 23 65 114 114 160 120 114 283 153 441 105z"/>
<path d="M3550 6641 c0 -821 -4 -1287 -10 -1322 -26 -137 -116 -254 -238 -312
l-67 -32 -262 -3 -263 -3 0 -215 0 -216 298 4 c278 4 302 6 367 27 291 96 492
305 578 601 l22 75 3 1333 3 1332 -216 0 -215 0 0 -1269z"/>
<path d="M7032 7403 l3 -508 33 -95 c101 -288 305 -476 607 -558 84 -23 305
-22 400 1 98 25 258 105 337 171 132 109 233 269 280 441 21 76 22 104 26 568
l3 487 -215 0 -216 0 0 -435 c0 -283 -4 -452 -11 -487 -34 -160 -153 -284
-309 -324 -232 -59 -472 104 -510 346 -5 36 -10 248 -10 483 l0 417 -210 0
-211 0 3 -507z"/>
<path d="M11530 5555 l0 -295 185 0 185 0 0 35 0 35 -145 0 -145 0 0 100 0
100 125 0 125 0 0 35 0 35 -125 0 -125 0 0 90 0 90 145 0 145 0 0 35 0 35
-185 0 -185 0 0 -295z"/>
<path d="M12126 5700 c-15 -5 -37 -17 -47 -26 -18 -16 -19 -16 -19 4 0 19 -6
22 -40 22 l-40 0 0 -220 0 -220 40 0 40 0 0 156 0 156 29 29 c24 23 38 29 75
29 71 0 76 -13 76 -207 l0 -163 46 0 46 0 -4 178 c-4 189 -10 218 -55 247 -29
20 -108 28 -147 15z"/>
<path d="M12548 5701 c-83 -27 -129 -97 -136 -207 -5 -81 8 -130 46 -176 69
-82 218 -91 292 -17 37 37 37 42 5 63 -25 16 -27 16 -55 -8 -17 -13 -39 -28
-51 -31 -56 -18 -130 28 -148 93 l-10 32 145 0 144 0 0 62 c0 76 -28 139 -75
168 -38 23 -116 34 -157 21z m119 -94 c12 -12 25 -37 29 -54 l7 -33 -102 0
c-112 0 -116 3 -85 61 30 58 105 71 151 26z"/>
<path d="M12978 5691 c-30 -15 -38 -16 -38 -5 0 10 -12 14 -40 14 l-40 0 0
-220 0 -220 40 0 40 0 0 153 c0 120 3 157 15 174 18 26 77 47 105 38 20 -6 21
-3 18 37 -3 40 -5 43 -33 46 -16 1 -47 -6 -67 -17z"/>
<path d="M13210 5688 c-71 -37 -95 -89 -95 -208 1 -109 21 -161 76 -201 45
-32 122 -36 172 -11 l37 20 0 -30 c0 -21 -11 -41 -35 -65 -33 -33 -39 -35 -80
-31 -27 3 -59 16 -79 31 l-33 26 -23 -24 -23 -25 23 -25 c59 -62 196 -73 265
-20 63 47 65 57 65 330 l0 245 -34 0 c-21 0 -36 -6 -40 -15 -5 -14 -8 -14 -30
0 -42 28 -115 29 -166 3z m164 -83 c25 -23 26 -29 26 -122 0 -112 -10 -135
-64 -153 -47 -15 -99 7 -122 51 -19 37 -22 138 -6 181 28 70 113 92 166 43z"/>
<path d="M13891 5699 c-48 -15 -80 -38 -97 -70 -23 -46 -19 -59 23 -59 28 0
42 7 62 30 17 20 39 33 63 37 32 5 41 1 68 -25 17 -17 30 -41 30 -55 0 -24 -3
-25 -82 -29 -51 -3 -96 -11 -116 -22 -97 -50 -96 -192 1 -237 53 -24 101 -24
154 0 35 16 42 17 47 5 4 -9 21 -14 52 -14 40 0 45 2 38 18 -4 9 -10 89 -13
178 -6 171 -13 195 -65 230 -31 19 -120 27 -165 13z m149 -270 c0 -31 -6 -47
-29 -70 -55 -55 -153 -32 -153 36 0 49 42 72 135 74 l47 1 0 -41z"/>
<path d="M13590 5480 l0 -220 45 0 45 0 0 220 0 220 -45 0 -45 0 0 -220z"/>
<path d="M12460 4960 l0 -50 -40 0 c-39 0 -40 -1 -40 -35 0 -34 1 -35 40 -35
l40 0 0 -165 c0 -163 0 -166 25 -190 20 -21 34 -25 80 -25 l55 0 0 35 c0 32
-3 35 -28 35 -48 0 -52 12 -52 167 l0 143 40 0 c39 0 40 1 40 35 0 34 -1 35
-40 35 l-40 0 0 50 0 50 -40 0 -40 0 0 -50z"/>
<path d="M12720 4960 l0 -50 -40 0 c-39 0 -40 -1 -40 -35 0 -34 1 -35 40 -35
l40 0 0 -145 c0 -205 15 -235 119 -235 l51 0 0 35 c0 30 -3 35 -24 35 -56 0
-56 0 -56 161 l0 149 40 0 c39 0 40 1 40 35 0 34 -1 35 -40 35 l-40 0 0 50 0
50 -45 0 -45 0 0 -50z"/>
<path d="M11611 4893 c-85 -42 -95 -155 -17 -202 17 -11 60 -27 96 -36 69 -18
85 -27 101 -57 15 -28 -30 -68 -76 -68 -48 0 -93 25 -101 55 -5 21 -12 25 -45
25 -36 0 -39 -2 -39 -29 0 -36 42 -89 87 -107 49 -21 146 -18 193 6 93 47 93
167 1 214 -15 8 -56 22 -91 31 -75 19 -90 29 -90 60 0 31 31 55 72 55 38 0 88
-32 88 -56 0 -10 13 -14 44 -14 l44 0 -8 36 c-16 70 -71 104 -167 104 -33 0
-72 -8 -92 -17z"/>
<path d="M12047 4889 c-20 -11 -49 -38 -65 -61 -25 -38 -27 -49 -27 -143 0
-94 2 -105 28 -143 40 -61 93 -85 177 -80 123 7 184 81 184 223 0 150 -68 226
-202 225 -37 -1 -70 -8 -95 -21z m148 -61 c38 -17 65 -76 65 -143 0 -67 -27
-126 -65 -143 -86 -40 -165 28 -165 143 0 115 79 183 165 143z"/>
<path d="M13040 4892 c-141 -77 -139 -341 2 -413 61 -31 161 -24 213 15 53 40
79 104 79 191 0 87 -26 151 -79 191 -32 24 -49 29 -109 32 -55 2 -79 -1 -106
-16z m154 -73 c38 -30 56 -71 56 -130 0 -64 -30 -131 -66 -147 -85 -40 -164
29 -164 143 0 120 97 195 174 134z"/>
<path d="M13890 3980 l0 -310 40 0 40 0 0 310 0 310 -40 0 -40 0 0 -310z"/>
<path d="M14090 3980 l0 -310 40 0 40 0 0 310 0 310 -40 0 -40 0 0 -310z"/>
<path d="M12910 4165 l0 -55 -40 0 c-39 0 -40 -1 -40 -35 0 -34 1 -35 40 -35
l40 0 0 -146 c0 -171 10 -206 67 -225 19 -6 50 -8 69 -5 31 6 34 10 34 41 0
32 -2 34 -37 37 l-38 3 -3 148 -3 147 41 0 c39 0 40 1 40 35 0 34 -1 35 -40
35 l-40 0 0 55 0 55 -45 0 -45 0 0 -55z"/>
<path d="M11633 4101 c-26 -12 -52 -35 -70 -62 -26 -40 -28 -49 -28 -149 0
-99 2 -109 27 -147 71 -107 255 -103 317 7 32 57 28 70 -18 70 -30 0 -41 -5
-45 -18 -12 -37 -55 -67 -96 -67 -67 0 -110 60 -110 155 0 91 48 160 112 160
33 0 98 -56 98 -84 0 -12 10 -16 40 -16 48 0 51 14 18 80 -41 82 -151 113
-245 71z"/>
<path d="M12061 4098 c-84 -42 -128 -158 -102 -272 21 -92 68 -140 154 -158
94 -19 180 23 218 107 25 55 25 175 0 230 -48 103 -167 144 -270 93z m140 -64
c93 -48 88 -250 -7 -290 -32 -13 -42 -14 -73 -2 -56 21 -81 68 -81 148 0 53 5
74 23 101 38 57 84 71 138 43z"/>
<path d="M12565 4100 c-47 -24 -45 -24 -45 -5 0 11 -11 15 -40 15 l-40 0 0
-220 0 -220 40 0 40 0 0 158 0 158 30 29 c40 39 102 41 131 6 17 -21 19 -41
19 -187 l0 -164 40 0 40 0 0 176 c0 140 -3 183 -16 209 -29 62 -123 84 -199
45z"/>
<path d="M13263 4100 c-27 -16 -33 -17 -33 -5 0 11 -11 15 -40 15 l-40 0 0
-220 0 -220 45 0 45 0 0 165 0 165 33 20 c17 11 47 20 65 20 31 0 32 2 32 40
0 40 0 40 -37 40 -21 0 -53 -9 -70 -20z"/>
<path d="M13510 4098 c-78 -40 -116 -124 -107 -235 5 -70 39 -139 82 -167 44
-29 123 -40 175 -26 55 15 111 70 128 127 15 49 15 135 2 185 -32 114 -170
171 -280 116z m135 -60 c82 -37 98 -203 27 -271 -95 -91 -212 19 -181 170 17
87 86 132 154 101z"/>
<path d="M14370 4098 c-78 -40 -116 -124 -107 -236 10 -124 84 -197 202 -197
73 0 117 23 159 82 53 76 47 234 -11 304 -57 68 -162 88 -243 47z m135 -60
c80 -36 98 -202 29 -271 -93 -93 -214 19 -183 170 17 87 86 132 154 101z"/>
</g>
</svg>
